<svg width="168" height="33" viewBox="0 0 168 33" fill="none" xmlns="http://www.w3.org/2000/svg">
<path d="M61.5869 26.8984L61.6157 25.1797C60.2931 26.612 58.3955 27.4713 55.2327 27.4713C49.6836 27.4713 45.5145 23.5469 45.5145 16.987C45.5145 10.1406 50.3736 6.55989 55.3765 6.55989C58.5105 6.55989 60.2931 7.70572 61.1269 8.90885L61.0694 7.13281C61.0694 6.87499 61.1844 6.73177 61.4432 6.73177H64.1746C64.4334 6.73177 64.5772 6.87499 64.5772 7.13281V13.7786C64.5772 14.0365 64.4334 14.1797 64.1746 14.1797L61.1269 14.151C60.8681 14.151 60.7244 14.0078 60.7244 13.7213C60.7244 11.7734 58.9417 10.112 55.7503 10.112C52.2713 10.112 49.6548 12.6615 49.6548 16.9583C49.6548 21.3411 52.0988 23.9193 55.8653 23.9193C58.8267 23.9193 60.4368 22.8307 61.3569 21.5989V20.1953H56.6991C56.4691 20.1953 56.2966 20.0521 56.2966 19.7943V17.4739C56.2966 17.2161 56.4403 17.0729 56.6991 17.0729H64.5772C64.8359 17.0729 64.9797 17.2161 64.9797 17.4739V26.8698C64.9797 27.1276 64.8359 27.2708 64.5772 27.2708H62.0757C61.7019 27.2995 61.5869 27.1849 61.5869 26.8984Z" fill="white"/>
<path d="M68.5449 26.8984V24.6354C68.5449 24.3776 68.6887 24.2344 68.9475 24.2344H70.3563V16.2995H68.9475C68.7174 16.2995 68.5449 16.1562 68.5449 15.8984V13.6354C68.5449 13.3776 68.6887 13.2344 68.9475 13.2344H73.2603C73.519 13.2344 73.6628 13.3776 73.6628 13.6354V16.6146H73.7778C73.8928 15.7838 75.0141 13.0911 78.6657 13.0911C78.9244 13.0911 79.1257 13.2917 79.1257 13.5495V16.4713C79.1257 16.7292 78.9244 16.9297 78.6657 16.9297H78.2631C75.7617 16.9297 74.1803 18.6484 74.1803 21.513V24.2344H76.5668C76.8255 24.2344 76.9693 24.3776 76.9693 24.6354V26.8984C76.9693 27.1562 76.8255 27.2995 76.5668 27.2995H68.9475C68.7174 27.2995 68.5449 27.1849 68.5449 26.8984Z" fill="white"/>
<path d="M95.5431 24.6641V26.9271C95.5431 27.1849 95.3706 27.3281 95.1406 27.3281H91.7766C90.9715 27.3281 90.454 26.8125 90.454 26.0104V25.2083H90.3965C90.1665 25.5807 88.7864 27.5286 85.6524 27.5286C82.9497 27.5286 81.0808 25.9245 81.0808 23.4609C81.0808 20.6536 83.4672 18.9922 87.78 18.9922H89.9364V18.6198C89.9364 17.1016 89.0451 16.099 87.1187 16.099C84.8761 16.099 83.6397 17.1016 83.2947 17.1302C83.1222 17.1875 82.9497 17.1302 82.8347 16.9583L81.8571 15.1536C81.7709 15.0391 81.7421 14.8385 81.9434 14.6667C82.1734 14.4948 83.9848 13.0339 87.5213 13.0339C91.3165 13.0339 93.7317 14.8958 93.7317 18.6771V24.2344H95.1406C95.3993 24.263 95.5431 24.4062 95.5431 24.6641ZM89.9364 22.9453V21.2552H88.0388C86.1699 21.2552 84.9048 21.8281 84.9048 23.0599C84.9048 24.0625 85.6524 24.6354 86.8312 24.6354C88.3263 24.6068 89.3902 23.6901 89.9364 22.9453Z" fill="white"/>
<path d="M107.188 15.0963H107.303C107.274 14.9245 107.188 14.1224 107.188 13.75V9.82552H105.779C105.52 9.82552 105.376 9.68229 105.376 9.42448V7.16146C105.376 6.90364 105.52 6.76041 105.779 6.76041H110.465C110.724 6.76041 110.868 6.90364 110.868 7.16146V24.2344H112.277C112.536 24.2344 112.679 24.3776 112.679 24.6354V26.8984C112.679 27.1562 112.507 27.2995 112.277 27.2995H108.51C107.792 27.2995 107.303 26.8698 107.303 26.1536V25.4088H107.245C106.958 25.9818 105.491 27.5 102.875 27.5C99.2809 27.5 96.6932 24.8646 96.6932 20.224C96.6932 15.9844 99.1947 13.0338 103.047 13.0338C105.606 13.0338 106.871 14.4948 107.188 15.0963ZM107.188 20.2526C107.188 17.5599 105.578 16.2708 103.824 16.2708C101.984 16.2708 100.575 17.7318 100.575 20.2526C100.575 22.6875 101.869 24.3203 103.824 24.3203C105.693 24.2917 107.188 22.8594 107.188 20.2526Z" fill="white"/>
<path d="M115.44 26.8984V24.6354C115.44 24.3776 115.583 24.2344 115.842 24.2344H117.251V16.2995H115.842C115.583 16.2995 115.44 16.1562 115.44 15.8984V13.6354C115.44 13.3776 115.583 13.2344 115.842 13.2344H120.672C120.931 13.2344 121.075 13.3776 121.075 13.6354V24.263H122.398C122.656 24.263 122.8 24.4062 122.8 24.6641V26.9271C122.8 27.1849 122.628 27.3281 122.398 27.3281H115.813C115.583 27.2995 115.44 27.1849 115.44 26.8984ZM118.717 10.8281C117.222 10.8281 116.043 9.65364 116.043 8.1927C116.043 6.70312 117.222 5.52864 118.717 5.52864C120.184 5.52864 121.391 6.73177 121.391 8.1927C121.391 9.62499 120.184 10.8281 118.717 10.8281Z" fill="white"/>
<path d="M137.147 21.0833H128.033C128.32 23.2604 129.758 24.349 131.684 24.349C133.755 24.349 134.761 23.4036 135.278 23.0026C135.48 22.8594 135.738 22.8021 135.882 22.974L137.119 24.6068C137.291 24.8359 137.349 25.0078 137.176 25.2083C136.86 25.6667 134.905 27.5 131.454 27.5C127.113 27.5 124.209 24.6641 124.209 20.2526C124.209 15.8125 127.343 13.0339 131.023 13.0339C135.422 13.0339 137.607 15.8125 137.607 20.625C137.607 20.8828 137.406 21.0833 137.147 21.0833ZM133.87 18.9349C133.812 17.3021 132.892 16.099 131.081 16.099C129.586 16.099 128.464 17.0443 128.09 18.9349H133.87Z" fill="white"/>
<path d="M139.735 26.8984V24.6354C139.735 24.3776 139.879 24.2344 140.138 24.2344H141.546V16.2995H140.138C139.907 16.2995 139.735 16.1562 139.735 15.8984V13.6354C139.735 13.3776 139.879 13.2344 140.138 13.2344H144.45C144.709 13.2344 144.853 13.3776 144.853 13.6354V15.4115H144.968C145.14 15.1823 146.118 13.0339 149.338 13.0339C152.443 13.0339 154.284 15.0964 154.284 18.1042V24.2344H155.692C155.951 24.2344 156.095 24.3776 156.095 24.6354V26.8984C156.095 27.1562 155.922 27.2995 155.692 27.2995H151.811C150.92 27.2995 150.431 26.8698 150.431 25.9818V18.9062C150.431 17.2734 149.511 16.3854 148.044 16.3854C146.405 16.3854 145.629 17.5599 145.37 18.4479V24.2344H146.52C146.808 24.2344 146.923 24.3776 146.923 24.6354V26.8984C146.923 27.1562 146.779 27.2995 146.52 27.2995H140.138C139.879 27.2995 139.735 27.1849 139.735 26.8984Z" fill="white"/>
<path d="M159.114 22.0859V16.2995H157.015C156.756 16.2995 156.555 16.0989 156.555 15.8411V13.7213C156.555 13.4635 156.756 13.263 157.015 13.263H159.114V10.1693C159.114 9.91145 159.315 9.71093 159.574 9.71093H162.478C162.737 9.71093 162.938 9.91145 162.938 10.1693V13.263H166.733C166.992 13.263 167.193 13.4635 167.193 13.7213V15.8411C167.193 16.0989 166.992 16.2995 166.733 16.2995H162.938V22.0573C162.938 23.289 163.484 24.1771 164.721 24.1771C165.439 24.1771 165.842 23.9193 166.129 23.7474C166.359 23.6042 166.647 23.6328 166.791 23.862L167.912 25.638C168.056 25.8385 168.027 26.125 167.797 26.3255C167.28 26.6979 166.101 27.5 164.031 27.5C160.983 27.5 159.114 25.6667 159.114 22.0859Z" fill="white"/>
<path d="M33.1223 16.7292V23.3463L29.2983 27.1562V20.0807H27.3719V29.0755L23.4329 33H11.5295V23.4323H21.5928V26.6979L21.0465 27.2708H15.3536V29.1901H23.5192V16.7292H33.1223Z" fill="#01CC90"/>
<path d="M11.5296 5.72917V6.30208V9.56771H33.0361L23.4329 0H9.68945L5.75041 3.92448V23.6615L3.85278 21.7422V5.84375L0.115008 9.56771L0 9.65364V23.3463L9.60319 32.9141V3.83854H21.8228L23.7492 5.72917H12.0759H11.5296Z" fill="#01CC90"/>
</svg>
